# xmcd
#
# Track frame offsets:
#	150
#	45033
#	63575
#	90513
#	119366
#	145638
#	189590
#	299410
#
# Disc length: 4426 seconds
#
# Revision: 1
# Processed by: cddbd v1.5.2PL0 Copyright (c) Steve Scherf et al.
# Submitted via: audiograbber 1.83.01
#
DISCID=6a114808
DTITLE=Grateful Dead - 70-12-28A Legion Stadium, El-Monte CA
DYEAR=1900
DGENRE=
TTITLE0=Smokestack Lightning
TTITLE1=Big Railroad Blues
TTITLE2=Me and Bobby McGee
TTITLE3=Deep Elem Blues
TTITLE4=Cumberland Blues
TTITLE5=Morning Dew
TTITLE6=Good Lovin'
TTITLE7=Uncle John's Band
EXTD=
EXTT0=
EXTT1=
EXTT2=
EXTT3=
EXTT4=
EXTT5=
EXTT6=
EXTT7=
PLAYORDER=
